<?xml version="1.0" standalone="no"?>
<!DOCTYPE svg PUBLIC "-//W3C//DTD SVG 20010904//EN"
 "http://www.w3.org/TR/2001/REC-SVG-20010904/DTD/svg10.dtd">
<svg version="1.0" xmlns="http://www.w3.org/2000/svg"
 width="4096.000000pt" height="4096.000000pt" viewBox="0 0 4096.000000 4096.000000"
 preserveAspectRatio="xMidYMid meet">
<metadata>
Created by potrace 1.14, written by Peter Selinger 2001-2017
</metadata>
<g transform="translate(0.000000,4096.000000) scale(0.100000,-0.100000)"
fill="#000000" stroke="none">
<path d="M35879 40406 c-2 -2 -49 -7 -104 -10 -99 -7 -128 -9 -235 -21 -137
-15 -374 -55 -540 -91 -118 -25 -382 -95 -417 -109 -18 -8 -33 -12 -33 -10 0
4 -207 -65 -315 -105 -386 -142 -855 -381 -1195 -609 -161 -108 -424 -303
-460 -341 -3 -3 -36 -32 -75 -65 -166 -142 37 60 -3592 -3562 -1671 -1667
-3200 -3193 -3398 -3390 l-360 -359 -155 59 c-85 32 -166 62 -180 67 -35 12
-115 42 -415 154 -143 54 -321 120 -395 147 -74 28 -144 54 -155 59 -11 5 -47
18 -80 30 -33 11 -69 25 -80 30 -11 5 -47 18 -80 30 -33 12 -87 32 -120 45
-99 38 -209 79 -220 82 -5 1 -89 32 -185 69 -186 71 -434 163 -590 220 -52 19
-111 41 -130 49 -19 8 -132 50 -251 94 -119 44 -227 85 -240 90 -13 5 -49 18
-79 30 -211 77 -396 146 -460 171 -68 26 -866 324 -950 354 -121 44 -430 160
-455 171 -16 7 -61 24 -100 38 -100 36 -826 306 -850 317 -11 5 -83 32 -160
60 -77 28 -149 55 -160 60 -18 8 -658 246 -1815 677 -228 84 -424 158 -435
162 -37 16 -99 39 -275 104 -379 141 -617 229 -650 243 -19 7 -145 54 -280
104 -135 50 -261 97 -280 105 -19 8 -114 43 -210 79 -96 35 -398 147 -670 249
-272 102 -738 276 -1035 387 -297 111 -630 236 -740 277 -556 209 -523 198
-995 320 -208 54 -558 135 -630 147 -19 3 -60 10 -90 16 -93 18 -212 38 -269
45 -30 4 -63 8 -73 10 -11 2 -49 7 -86 10 -37 4 -78 8 -92 10 -155 25 -800 25
-925 0 -11 -2 -42 -7 -70 -10 -192 -22 -453 -78 -673 -144 -132 -40 -350 -119
-402 -146 -16 -8 -32 -15 -35 -16 -21 0 -243 -108 -388 -188 -463 -257 -853
-557 -1297 -1001 -169 -169 -238 -241 -407 -430 -199 -223 -472 -588 -635
-850 -268 -431 -485 -938 -568 -1330 -5 -19 -15 -69 -24 -110 -8 -41 -17 -84
-19 -95 -3 -11 -10 -63 -17 -115 -6 -52 -13 -106 -16 -120 -22 -132 -22 -600
0 -740 5 -31 15 -102 21 -155 11 -89 68 -352 95 -440 6 -16 21 -66 34 -110
131 -428 375 -907 687 -1350 46 -66 140 -194 163 -222 261 -325 423 -508 651
-737 81 -82 90 -89 405 -346 129 -105 244 -199 255 -208 11 -10 83 -69 160
-131 77 -63 169 -139 205 -169 36 -29 72 -59 80 -65 19 -16 449 -367 475 -389
11 -9 115 -94 230 -188 116 -95 219 -179 230 -188 11 -10 45 -37 75 -62 30
-25 64 -53 75 -62 21 -17 293 -240 361 -295 139 -113 242 -198 264 -217 14
-11 61 -50 105 -85 44 -36 87 -70 95 -77 58 -50 105 -88 175 -144 44 -35 82
-67 85 -70 3 -3 52 -44 109 -90 58 -47 132 -107 166 -135 34 -27 84 -68 111
-90 27 -22 51 -42 54 -45 3 -3 41 -35 85 -70 44 -36 89 -72 100 -82 11 -9 148
-121 305 -249 157 -128 287 -235 290 -239 3 -3 36 -30 75 -60 38 -30 103 -83
145 -118 141 -118 164 -137 305 -252 242 -196 569 -464 581 -475 6 -5 30 -26
54 -45 48 -39 520 -424 590 -482 25 -20 90 -74 145 -118 101 -83 126 -103 180
-149 17 -14 51 -42 75 -61 24 -19 125 -102 224 -183 100 -81 188 -153 196
-160 33 -26 125 -103 135 -112 7 -5 29 -23 50 -40 21 -16 93 -75 160 -130 67
-55 141 -116 165 -135 24 -19 62 -51 85 -70 61 -51 127 -106 225 -185 80 -64
509 -416 537 -440 7 -5 18 -15 25 -20 7 -6 76 -62 153 -125 76 -63 148 -122
158 -130 18 -15 -51 -85 -1177 -1210 -2791 -2788 -3739 -3730 -3752 -3730 -8
0 -133 30 -277 66 -144 36 -269 67 -277 69 -8 2 -152 38 -320 80 -168 42 -312
78 -320 80 -8 2 -152 38 -320 80 -168 42 -312 78 -320 80 -8 2 -296 74 -640
160 -344 86 -632 158 -640 160 -8 2 -224 56 -480 120 -256 64 -472 118 -480
120 -8 2 -294 73 -635 159 -622 155 -749 185 -859 202 -22 3 -43 7 -46 9 -3 2
-34 6 -70 10 -36 4 -73 9 -82 10 -17 4 -88 11 -198 21 -87 7 -358 7 -445 0
-141 -13 -204 -21 -310 -42 -44 -8 -91 -18 -105 -20 -60 -12 -275 -76 -315
-94 -11 -5 -45 -19 -75 -30 -110 -42 -318 -153 -445 -237 -71 -48 -132 -89
-135 -92 -3 -3 -39 -33 -80 -66 -104 -82 -142 -118 -484 -464 -348 -351 -311
-313 -407 -421 -290 -328 -505 -654 -643 -973 -85 -197 -144 -385 -176 -569
-6 -32 -12 -70 -15 -85 -22 -122 -25 -446 -5 -589 70 -510 306 -978 685 -1358
104 -104 163 -151 255 -203 19 -11 98 -58 175 -103 77 -46 150 -88 162 -94 13
-6 23 -14 23 -18 0 -5 4 -8 9 -8 5 0 148 -82 318 -182 169 -99 317 -186 328
-192 23 -13 179 -105 460 -271 105 -62 206 -122 225 -133 46 -26 477 -280 515
-303 17 -10 50 -30 75 -44 25 -14 52 -30 60 -35 16 -11 302 -179 359 -212 19
-11 198 -116 398 -234 200 -118 366 -214 369 -214 3 0 10 -5 17 -11 7 -5 109
-67 227 -136 118 -69 289 -169 380 -223 254 -150 612 -361 645 -380 17 -9 170
-99 340 -200 171 -100 326 -191 345 -202 19 -11 96 -57 170 -101 74 -44 155
-91 180 -105 25 -13 52 -31 61 -38 8 -8 19 -14 22 -14 4 0 78 -42 165 -93 86
-52 252 -149 367 -217 116 -67 221 -130 235 -139 14 -8 41 -24 60 -34 19 -10
51 -29 70 -42 19 -12 159 -95 311 -184 l277 -162 67 -117 c38 -64 87 -148 110
-187 33 -54 456 -772 561 -952 11 -17 43 -74 73 -125 30 -51 85 -144 123 -206
37 -63 68 -116 68 -118 0 -2 11 -21 24 -42 13 -20 76 -127 141 -237 64 -110
139 -236 165 -280 26 -44 57 -96 68 -115 22 -40 275 -470 303 -515 10 -16 22
-37 26 -45 4 -8 22 -38 40 -67 18 -29 33 -54 33 -56 0 -2 36 -64 80 -137 44
-73 80 -134 80 -136 0 -1 33 -58 73 -126 93 -155 238 -402 264 -448 11 -19 55
-93 97 -164 42 -71 88 -148 100 -170 42 -74 558 -950 581 -986 19 -30 231
-391 285 -485 9 -16 32 -55 50 -85 18 -30 41 -68 50 -85 10 -16 76 -130 148
-252 72 -121 141 -238 152 -258 11 -20 47 -80 79 -133 32 -53 67 -113 77 -132
19 -34 116 -199 271 -458 40 -68 73 -125 73 -128 0 -3 14 -25 30 -49 17 -24
30 -47 30 -50 0 -9 78 -122 110 -159 174 -202 489 -446 740 -573 202 -103 429
-181 600 -207 19 -3 46 -8 60 -11 49 -10 187 -19 305 -19 498 0 964 158 1479
503 187 125 204 138 401 295 324 259 765 675 929 876 43 52 85 104 94 115 91
109 332 528 332 575 0 5 4 18 10 28 27 47 92 271 105 362 3 19 8 44 10 55 27
126 28 585 1 730 -2 11 -7 43 -10 70 -4 28 -16 100 -28 160 -11 61 -21 119
-23 130 -5 36 -15 83 -51 248 -20 89 -40 182 -45 206 -5 23 -13 59 -18 80 -6
20 -12 47 -15 61 -2 14 -28 126 -56 250 -28 124 -53 232 -55 240 -2 8 -9 38
-15 65 -6 28 -14 61 -16 75 -3 14 -7 33 -10 42 -3 10 -7 30 -10 45 -3 16 -14
66 -25 113 -11 47 -25 105 -30 130 -6 25 -12 52 -14 60 -2 8 -15 69 -30 135
-15 66 -28 124 -30 130 -1 5 -5 21 -8 35 -3 14 -16 68 -27 120 -25 110 -21 92
-54 240 -14 63 -35 156 -47 205 -11 50 -23 98 -25 108 -2 10 -5 26 -8 35 -3 9
-7 28 -10 42 -3 14 -10 48 -16 75 -5 28 -13 61 -15 75 -3 14 -8 32 -11 40 -3
8 -14 56 -25 105 -11 50 -21 99 -24 110 -22 95 -79 347 -85 375 -7 31 -106
473 -115 510 -2 8 -24 107 -50 220 -25 113 -50 221 -55 240 -5 19 -11 46 -14
60 -2 14 -19 88 -36 165 -84 366 -122 532 -126 551 -2 12 -18 82 -35 155 -17
74 -33 145 -35 159 -3 14 -11 50 -19 80 -8 30 -17 70 -20 89 -3 19 -8 37 -10
41 -3 4 678 692 1513 1529 834 837 1939 1946 2455 2464 l937 942 33 -35 c18
-19 44 -51 59 -72 15 -20 33 -42 40 -50 7 -7 42 -49 78 -93 36 -44 73 -89 82
-100 36 -44 355 -435 383 -470 17 -21 35 -43 40 -49 6 -6 37 -45 70 -86 67
-83 95 -117 110 -134 6 -6 38 -45 70 -86 33 -41 62 -77 65 -80 6 -6 185 -223
301 -366 41 -50 129 -158 196 -240 67 -82 197 -242 290 -355 401 -491 552
-676 576 -704 14 -16 96 -118 183 -225 87 -107 163 -200 169 -206 5 -7 24 -29
41 -50 74 -91 279 -342 310 -379 18 -22 109 -133 201 -246 268 -329 522 -639
698 -854 55 -68 114 -140 130 -161 17 -21 37 -45 45 -54 8 -8 31 -36 50 -60
19 -25 37 -47 40 -50 5 -4 134 -163 190 -233 8 -11 20 -24 25 -31 11 -11 128
-155 155 -189 8 -11 20 -24 25 -31 6 -6 30 -36 55 -66 25 -30 52 -64 62 -75 9
-11 71 -87 138 -170 67 -82 134 -164 148 -181 15 -17 41 -48 57 -68 17 -21
115 -143 220 -270 104 -127 247 -303 319 -391 71 -88 132 -162 135 -165 3 -3
33 -39 66 -80 33 -41 67 -84 77 -95 9 -11 53 -65 98 -120 45 -55 96 -118 115
-140 18 -22 88 -107 155 -190 67 -82 132 -161 144 -175 11 -14 48 -59 81 -100
33 -41 62 -77 65 -80 3 -3 35 -41 70 -85 35 -44 70 -87 77 -95 7 -8 41 -49 74
-90 34 -41 69 -84 78 -95 9 -11 64 -78 122 -150 125 -152 221 -251 464 -474
105 -97 361 -310 490 -408 97 -75 80 -63 296 -208 179 -121 277 -181 401 -249
206 -112 390 -199 563 -265 61 -24 119 -47 130 -52 109 -47 486 -147 655 -173
153 -24 217 -33 322 -43 107 -10 500 -10 598 0 41 4 95 10 120 12 25 3 59 7
75 10 17 2 48 7 70 10 33 5 89 16 257 50 104 21 335 93 485 151 592 227 1099
562 1709 1129 199 185 573 570 689 710 28 33 55 65 61 70 36 34 297 380 364
485 6 8 25 38 43 65 30 46 95 154 169 278 30 51 172 339 208 422 23 54 101
254 105 270 1 6 5 17 8 25 9 23 73 237 95 320 29 105 71 327 87 455 4 28 8 61
10 74 4 22 12 111 20 231 6 76 6 439 0 525 -5 91 -13 187 -21 250 -16 138 -35
285 -44 330 -6 28 -12 66 -14 85 -7 52 -64 330 -92 450 -14 58 -27 112 -29
120 -2 8 -11 47 -20 85 -66 281 -169 647 -205 730 -4 11 -27 72 -50 135 -23
63 -54 149 -70 190 -15 41 -61 163 -100 270 -40 107 -115 310 -167 450 -52
140 -96 260 -97 265 -1 6 -12 37 -25 70 -24 63 -260 696 -316 850 -18 50 -51
140 -73 200 -98 268 -233 632 -241 650 -5 11 -19 49 -32 85 -12 36 -26 69 -31
75 -4 5 -8 17 -8 27 0 10 -4 26 -9 36 -5 9 -18 42 -29 72 -20 56 -77 209 -92
245 -4 11 -27 72 -49 135 -23 63 -48 131 -56 150 -7 19 -39 105 -70 190 -31
85 -69 189 -85 230 -29 77 -151 406 -200 540 -31 86 -99 270 -240 650 -188
506 -443 1196 -492 1330 -27 74 -79 214 -115 310 -35 96 -96 261 -134 365 -39
105 -74 200 -80 213 -5 13 -50 134 -100 270 -49 136 -104 283 -120 327 -71
187 -175 468 -239 645 -22 63 -45 124 -50 135 -5 11 -31 81 -58 155 -28 74
-82 223 -122 330 -40 107 -88 238 -107 290 -19 52 -38 104 -43 115 -5 11 -49
130 -99 265 -121 331 -350 951 -358 970 -3 8 -7 17 -7 20 -1 3 -7 19 -13 35
-7 17 -51 136 -98 265 -151 409 -215 582 -256 688 -21 56 -39 105 -39 108 0 6
-135 372 -151 409 -5 11 -31 83 -60 160 -28 77 -71 194 -95 259 l-44 119 177
178 c608 606 6036 6054 6711 6734 276 278 392 401 477 510 22 28 43 52 46 55
3 3 49 61 101 130 388 511 698 1108 893 1720 15 47 36 110 46 140 14 44 67
245 84 320 31 135 78 381 90 470 3 25 10 77 15 115 42 321 53 785 25 1060 -2
28 -7 75 -10 105 -6 59 -32 252 -39 285 -2 11 -9 54 -16 95 -21 130 -97 419
-154 592 -91 271 -218 554 -355 788 -27 47 -62 106 -77 133 -15 26 -31 47 -36
47 -4 0 -8 4 -8 10 0 5 -12 27 -27 48 -16 22 -48 68 -72 103 -25 35 -88 118
-141 184 -676 838 -1602 1369 -2720 1561 -52 8 -108 17 -125 19 -84 11 -127
15 -195 21 -41 3 -86 8 -100 11 -28 6 -646 14 -651 9z"/>
</g>
</svg>
